<svg width="624" height="144" xmlns="http://www.w3.org/2000/svg">
 <!-- Generator: Sketch 3.8.3 (29802) - http://www.bohemiancoding.com/sketch -->
 <title>Group</title>
 <desc>Created with Sketch.</desc>

 <g>
  <title>background</title>
  <rect fill="none" id="canvas_background" height="402" width="582" y="-1" x="-1"/>
 </g>
 <g>
  <title>Layer 1</title>
  <g fill-rule="evenodd" fill="none" id="Page-1">
   <g id="Group">
    <polyline points="539 11.623 606.897 11.623 542.911 137.97 553.61 143.433 623.336 2 539 2 539 11.623" fill="#C0242B" id="Fill-3"/>
    <path fill="#C0242B" id="Fill-4" d="m489.449,10.199c9.276,0 16.881,2.661 22.697,8.025c5.815,5.371 8.749,12.394 8.735,20.934l0,0.049c-0.095,12.313 -12.634,31.717 -37.503,58.823c-4.011,4.315 -7.063,7.654 -9.162,10.028l-29.216,32.051l87.896,0l0,-9.806l-64.762,0l31.659,-33.825l0.876,-0.962l0.781,0.69l-0.781,-0.707c21.956,-23.392 32.812,-42.497 32.799,-57.097l0,-0.044c-0.011,-11.638 -3.879,-20.866 -11.601,-27.854c-7.743,-6.983 -18.059,-10.504 -31.078,-10.504c-13.523,0 -24.122,3.807 -31.932,11.398c-7.795,7.585 -11.711,17.907 -11.722,31.098l0,0.756l11.358,0c0.101,-10.078 2.863,-18.128 8.31,-24.042c5.532,-5.987 13.114,-9.011 22.575,-9.011l0.071,0"/>
    <path fill="#ffffff" id="Fill-6" d="m10.404,129.127l0,-118.433l30.631,0c19.794,-0.041 33.82,6.571 43.291,16.671c9.903,10.915 14.4,26.09 14.4,42.923c0,17.435 -4.862,32.204 -14.679,42.636c-9.78,10.406 -24.358,16.203 -42.936,16.203l-30.707,0l0,0zm98.92,-59.41c-0.017,-19.537 -5.363,-35.377 -16.364,-47.484c-13.332,-15.899 -33.763,-20.233 -53.448,-20.233l-39.512,0l0,135.806l40.266,0c46.317,-0.255 68.771,-26.619 69.058,-68.089l0,0z"/>
    <path fill="#ffffff" id="Fill-7" d="m128.116,81.629c1.431,-19.809 18.768,-36.813 41.79,-36.813c0.421,-0.011 0.799,-0.011 1.13,-0.011c21.896,0.061 39.469,18.022 40.543,36.869l0.119,2.201l-83.75,0l0.168,-2.246l0,0zm88.584,30.271l-10.134,0c-7.138,13.325 -20.485,21.184 -36.63,21.136c0,0 -0.091,0.014 -0.3,0.014c-18.131,0.05 -40.87,-13.087 -41.702,-39.958l-0.076,-2.15l93.599,0c0.067,-1.042 0.1,-2.074 0.1,-3.105c-0.011,-13.957 -5.465,-27.118 -15.609,-36.949c-9.305,-8.937 -22.107,-13.888 -36.103,-13.888c-29.533,0.015 -51.814,23.203 -51.845,52.22c0.073,24.632 17.682,51.834 52.048,51.849c10.092,0 19.787,-2.763 28.034,-8.075c7.614,-4.794 14.042,-11.839 18.618,-21.094l0,0z"/>
    <path fill="#ffffff" id="Fill-8" d="m382.224,132.102c-23.796,-0.038 -42.449,-18.52 -42.491,-42.875l0,-0.186c0.042,-24.53 18.695,-43.025 42.491,-43.072c23.977,0.047 42.455,18.554 42.486,43.072c-0.031,24.522 -18.509,43.023 -42.486,43.061l0,0zm0,-95.102c-31.812,0.031 -52.173,24.298 -52.224,51.852l0,0.189c0.051,27.763 20.392,51.801 52.224,51.838c32.032,-0.037 52.344,-24.075 52.424,-51.838c-0.08,-27.763 -20.421,-51.997 -52.424,-52.041l0,0z"/>
    <path fill="#ffffff" id="Fill-9" d="m319.401,67.373l7.361,-6.047c-9.54,-15.699 -26.772,-24.313 -44.715,-24.326c-29.959,0.044 -52.005,22.83 -52.047,52.041c0.08,26.446 19.492,52.01 52.991,52.034c18.626,0 34.465,-9.435 43.507,-23.603l-7.277,-6.005c-6.117,11.105 -18.991,20.467 -36.783,20.635l-0.014,0c-23.191,-0.044 -42.46,-17.736 -42.504,-43.061c0.014,-12.382 4.938,-23.899 12.291,-31.072c8.8,-8.271 17.97,-12.241 30.405,-12.183c13.69,-0.015 28.902,6.846 36.785,21.587"/>
   </g>
  </g>
 </g>
</svg>