<?xml version="1.0" encoding="UTF-8" standalone="no"?>
<svg width="637px" height="160px" viewBox="0 0 637 160" version="1.1" xmlns="http://www.w3.org/2000/svg" xmlns:xlink="http://www.w3.org/1999/xlink">
    <!-- Generator: Sketch 3.8.3 (29802) - http://www.bohemiancoding.com/sketch -->
    <title>Artboard 1</title>
    <desc>Created with Sketch.</desc>
    <defs></defs>
    <g id="Page-1" stroke="none" stroke-width="1" fill="none" fill-rule="evenodd">
        <g id="Artboard-1">
            <g id="Group" transform="translate(7.000000, 5.000000)">
                <polyline id="Fill-3" fill="#C0242B" points="539.352 13.066 607.249 13.066 543.263 139.413 553.962 144.876 623.688 3.443 539.352 3.443 539.352 13.066"></polyline>
                <path d="M490.259,10.874 C499.535,10.874 507.14,13.535 512.956,18.899 C518.771,24.27 521.705,31.293 521.691,39.833 L521.691,39.882 C521.596,52.195 509.057,71.599 484.188,98.705 C480.177,103.02 477.125,106.359 475.026,108.733 L445.81,140.784 L533.706,140.784 L533.706,130.978 L468.944,130.978 L500.603,97.153 L501.479,96.191 L502.26,96.881 L501.479,96.174 C523.435,72.782 534.291,53.677 534.278,39.077 L534.278,39.033 C534.267,27.395 530.399,18.167 522.677,11.179 C514.934,4.196 504.618,0.675 491.599,0.675 C478.076,0.675 467.477,4.482 459.667,12.073 C451.872,19.658 447.956,29.98 447.945,43.171 L447.945,43.927 L459.303,43.927 C459.404,33.849 462.166,25.799 467.613,19.885 C473.145,13.898 480.727,10.874 490.188,10.874 L490.259,10.874" id="Fill-4" fill="#C0242B"></path>
                <path d="M11.134,130.457 L11.134,12.024 L41.765,12.024 C61.559,11.983 75.585,18.595 85.056,28.695 C94.959,39.61 99.456,54.785 99.456,71.618 C99.456,89.053 94.594,103.822 84.777,114.254 C74.997,124.66 60.419,130.457 41.841,130.457 L11.134,130.457 L11.134,130.457 Z M110.054,71.047 C110.037,51.51 104.691,35.67 93.69,23.563 C80.358,7.664 59.927,3.33 40.242,3.33 L0.73,3.33 L0.73,139.136 L40.996,139.136 C87.313,138.881 109.767,112.517 110.054,71.047 L110.054,71.047 Z" id="Fill-6" fill="#4D4940"></path>
                <path d="M128.515,83.088 C129.946,63.279 147.283,46.275 170.305,46.275 C170.726,46.264 171.104,46.264 171.435,46.264 C193.331,46.325 210.904,64.286 211.978,83.133 L212.097,85.334 L128.347,85.334 L128.515,83.088 L128.515,83.088 Z M217.099,113.359 L206.965,113.359 C199.827,126.684 186.48,134.543 170.335,134.495 C170.335,134.495 170.244,134.509 170.035,134.509 C151.904,134.559 129.165,121.422 128.333,94.551 L128.257,92.401 L221.856,92.401 C221.923,91.359 221.956,90.327 221.956,89.296 C221.945,75.339 216.491,62.178 206.347,52.347 C197.042,43.41 184.24,38.459 170.244,38.459 C140.711,38.474 118.43,61.662 118.399,90.679 C118.472,115.311 136.081,142.513 170.447,142.528 C180.539,142.528 190.234,139.765 198.481,134.453 C206.095,129.659 212.523,122.614 217.099,113.359 L217.099,113.359 Z" id="Fill-7" fill="#4D4940"></path>
                <path d="M382.57,133.551 C358.774,133.513 340.121,115.031 340.079,90.676 L340.079,90.49 C340.121,65.96 358.774,47.465 382.57,47.418 C406.547,47.465 425.025,65.972 425.056,90.49 C425.025,115.012 406.547,133.513 382.57,133.551 L382.57,133.551 Z M382.57,38.449 C350.758,38.48 330.397,62.747 330.346,90.301 L330.346,90.49 C330.397,118.253 350.738,142.291 382.57,142.328 C414.602,142.291 434.914,118.253 434.994,90.49 C434.914,62.727 414.573,38.493 382.57,38.449 L382.57,38.449 Z" id="Fill-8" fill="#4D4940"></path>
                <path d="M319.385,68.822 L326.746,62.775 C317.206,47.076 299.974,38.462 282.031,38.449 C252.072,38.493 230.026,61.279 229.984,90.49 C230.064,116.936 249.476,142.5 282.975,142.524 C301.601,142.524 317.44,133.089 326.482,118.921 L319.205,112.916 C313.088,124.021 300.214,133.383 282.422,133.551 L282.408,133.551 C259.217,133.507 239.948,115.815 239.904,90.49 C239.918,78.108 244.842,66.591 252.195,59.418 C260.995,51.147 270.165,47.177 282.6,47.235 C296.29,47.22 311.502,54.081 319.385,68.822" id="Fill-9" fill="#4D4940"></path>
            </g>
        </g>
    </g>
</svg>